<mxfile host="app.diagrams.net" agent="Mozilla/5.0 (Windows NT 10.0; Win64; x64) AppleWebKit/537.36 (KHTML, like Gecko) Chrome/141.0.0.0 Safari/537.36 Edg/141.0.0.0" version="28.2.3">
  <diagram name="Page-1" id="jfDBXncFpyWW6DPJz7Fo">
    <mxGraphModel dx="2517" dy="1150" grid="1" gridSize="10" guides="1" tooltips="1" connect="1" arrows="1" fold="1" page="1" pageScale="1" pageWidth="850" pageHeight="1100" math="0" shadow="0">
      <root>
        <mxCell id="0" />
        <mxCell id="1" parent="0" />
        <mxCell id="wPt5KKNDqoDLbK822SAh-1" value="Administrator attempts protected action" style="whiteSpace=wrap;strokeWidth=2;fillColor=#e3c800;fontColor=#000000;strokeColor=#B09500;fontStyle=1;fontSize=14;" parent="1" vertex="1">
          <mxGeometry x="568" y="20" width="260" height="78" as="geometry" />
        </mxCell>
        <mxCell id="wPt5KKNDqoDLbK822SAh-2" value="Is action configured for MAA?" style="rhombus;strokeWidth=2;whiteSpace=wrap;fillColor=#e3c800;fontColor=#000000;strokeColor=#B09500;fontStyle=1;fontSize=14;" parent="1" vertex="1">
          <mxGeometry x="559" y="148" width="278" height="278" as="geometry" />
        </mxCell>
        <mxCell id="wPt5KKNDqoDLbK822SAh-3" value="Action executes immediately" style="whiteSpace=wrap;strokeWidth=2;fillColor=#e3c800;fontColor=#000000;strokeColor=#B09500;fontStyle=1;fontSize=14;" parent="1" vertex="1">
          <mxGeometry x="413" y="499" width="260" height="78" as="geometry" />
        </mxCell>
        <mxCell id="wPt5KKNDqoDLbK822SAh-4" value="System creates approval request" style="whiteSpace=wrap;strokeWidth=2;fillColor=#e3c800;fontColor=#000000;strokeColor=#B09500;fontStyle=1;fontSize=14;" parent="1" vertex="1">
          <mxGeometry x="723" y="499" width="260" height="78" as="geometry" />
        </mxCell>
        <mxCell id="wPt5KKNDqoDLbK822SAh-5" value="Notification sent to designated approvers" style="whiteSpace=wrap;strokeWidth=2;fillColor=#e3c800;fontColor=#000000;strokeColor=#B09500;fontStyle=1;fontSize=14;" parent="1" vertex="1">
          <mxGeometry x="723" y="627" width="260" height="78" as="geometry" />
        </mxCell>
        <mxCell id="wPt5KKNDqoDLbK822SAh-6" value="Request enters pending state" style="whiteSpace=wrap;strokeWidth=2;fillColor=#e3c800;fontColor=#000000;strokeColor=#B09500;fontStyle=1;fontSize=14;" parent="1" vertex="1">
          <mxGeometry x="723" y="755" width="260" height="78" as="geometry" />
        </mxCell>
        <mxCell id="wPt5KKNDqoDLbK822SAh-7" value="Action is blocked until approved" style="whiteSpace=wrap;strokeWidth=2;fillColor=#e3c800;fontColor=#000000;strokeColor=#B09500;fontStyle=1;fontSize=14;" parent="1" vertex="1">
          <mxGeometry x="723" y="883" width="260" height="78" as="geometry" />
        </mxCell>
        <mxCell id="wPt5KKNDqoDLbK822SAh-8" value="Approver reviews request" style="rhombus;strokeWidth=2;whiteSpace=wrap;fillColor=#e3c800;fontColor=#000000;strokeColor=#B09500;fontStyle=1;fontSize=14;" parent="1" vertex="1">
          <mxGeometry x="734" y="1011" width="237" height="237" as="geometry" />
        </mxCell>
        <mxCell id="wPt5KKNDqoDLbK822SAh-9" value="Approver can view action details" style="whiteSpace=wrap;strokeWidth=2;fillColor=#e3c800;fontColor=#000000;strokeColor=#B09500;fontStyle=1;fontSize=14;" parent="1" vertex="1">
          <mxGeometry x="485" y="1298" width="260" height="78" as="geometry" />
        </mxCell>
        <mxCell id="wPt5KKNDqoDLbK822SAh-10" value="Approver decision" style="rhombus;strokeWidth=2;whiteSpace=wrap;fillColor=#e3c800;fontColor=#000000;strokeColor=#B09500;fontStyle=1;fontSize=14;" parent="1" vertex="1">
          <mxGeometry x="524" y="1426" width="182" height="182" as="geometry" />
        </mxCell>
        <mxCell id="wPt5KKNDqoDLbK822SAh-11" value="Sufficient approvals received?" style="rhombus;strokeWidth=2;whiteSpace=wrap;fillColor=#e3c800;fontColor=#000000;strokeColor=#B09500;fontStyle=1;fontSize=14;" parent="1" vertex="1">
          <mxGeometry x="166" y="1681" width="278" height="278" as="geometry" />
        </mxCell>
        <mxCell id="wPt5KKNDqoDLbK822SAh-12" value="Request rejected" style="whiteSpace=wrap;strokeWidth=2;fillColor=#e3c800;fontColor=#000000;strokeColor=#B09500;fontStyle=1;fontSize=14;" parent="1" vertex="1">
          <mxGeometry x="679" y="1793" width="183" height="54" as="geometry" />
        </mxCell>
        <mxCell id="wPt5KKNDqoDLbK822SAh-13" value="Request expires" style="whiteSpace=wrap;strokeWidth=2;fillColor=#e3c800;fontColor=#000000;strokeColor=#B09500;fontStyle=1;fontSize=14;" parent="1" vertex="1">
          <mxGeometry x="993" y="1793" width="173" height="54" as="geometry" />
        </mxCell>
        <mxCell id="wPt5KKNDqoDLbK822SAh-14" value="Wait for additional approvals" style="whiteSpace=wrap;strokeWidth=2;fillColor=#e3c800;fontColor=#000000;strokeColor=#B09500;fontStyle=1;fontSize=14;" parent="1" vertex="1">
          <mxGeometry x="20" y="2031" width="260" height="78" as="geometry" />
        </mxCell>
        <mxCell id="wPt5KKNDqoDLbK822SAh-15" value="All required approvals received" style="whiteSpace=wrap;strokeWidth=2;fillColor=#e3c800;fontColor=#000000;strokeColor=#B09500;fontStyle=1;fontSize=14;" parent="1" vertex="1">
          <mxGeometry x="330" y="2031" width="260" height="78" as="geometry" />
        </mxCell>
        <mxCell id="wPt5KKNDqoDLbK822SAh-16" value="More approvers available?" style="rhombus;strokeWidth=2;whiteSpace=wrap;fillColor=#e3c800;fontColor=#000000;strokeColor=#B09500;fontStyle=1;fontSize=14;" parent="1" vertex="1">
          <mxGeometry x="185" y="2159" width="239" height="239" as="geometry" />
        </mxCell>
        <mxCell id="wPt5KKNDqoDLbK822SAh-17" value="Request fails - insufficient approvers" style="whiteSpace=wrap;strokeWidth=2;fillColor=#e3c800;fontColor=#000000;strokeColor=#B09500;fontStyle=1;fontSize=14;" parent="1" vertex="1">
          <mxGeometry x="175" y="2471" width="260" height="78" as="geometry" />
        </mxCell>
        <mxCell id="wPt5KKNDqoDLbK822SAh-18" value="Action automatically executes" style="whiteSpace=wrap;strokeWidth=2;fillColor=#e3c800;fontColor=#000000;strokeColor=#B09500;fontStyle=1;fontSize=14;" parent="1" vertex="1">
          <mxGeometry x="520" y="2330" width="260" height="78" as="geometry" />
        </mxCell>
        <mxCell id="wPt5KKNDqoDLbK822SAh-19" value="Requesting admin and approvers notified" style="whiteSpace=wrap;strokeWidth=2;fillColor=#e3c800;fontColor=#000000;strokeColor=#B09500;fontStyle=1;fontSize=14;" parent="1" vertex="1">
          <mxGeometry x="520" y="2490" width="260" height="78" as="geometry" />
        </mxCell>
        <mxCell id="wPt5KKNDqoDLbK822SAh-20" value="Requesting admin notified of rejection" style="whiteSpace=wrap;strokeWidth=2;fillColor=#e3c800;fontColor=#000000;strokeColor=#B09500;fontStyle=1;fontSize=14;" parent="1" vertex="1">
          <mxGeometry x="640" y="2031" width="260" height="78" as="geometry" />
        </mxCell>
        <mxCell id="wPt5KKNDqoDLbK822SAh-21" value="Requesting admin notified of expiration" style="whiteSpace=wrap;strokeWidth=2;fillColor=#e3c800;fontColor=#000000;strokeColor=#B09500;fontStyle=1;fontSize=14;" parent="1" vertex="1">
          <mxGeometry x="950" y="2031" width="260" height="78" as="geometry" />
        </mxCell>
        <mxCell id="wPt5KKNDqoDLbK822SAh-22" value="Requesting admin notified of failure" style="whiteSpace=wrap;strokeWidth=2;fillColor=#e3c800;fontColor=#000000;strokeColor=#B09500;fontStyle=1;fontSize=14;" parent="1" vertex="1">
          <mxGeometry x="175" y="2599" width="260" height="78" as="geometry" />
        </mxCell>
        <mxCell id="wPt5KKNDqoDLbK822SAh-23" value="" style="curved=1;startArrow=none;endArrow=block;exitX=0.5;exitY=1;entryX=0.5;entryY=0;rounded=0;fillColor=#e3c800;strokeColor=#B09500;fontStyle=1;fontSize=14;" parent="1" source="wPt5KKNDqoDLbK822SAh-1" target="wPt5KKNDqoDLbK822SAh-2" edge="1">
          <mxGeometry relative="1" as="geometry">
            <Array as="points" />
          </mxGeometry>
        </mxCell>
        <mxCell id="wPt5KKNDqoDLbK822SAh-24" value="No" style="curved=1;startArrow=none;endArrow=block;exitX=0.06;exitY=1;entryX=0.5;entryY=0;rounded=0;fillColor=#e3c800;strokeColor=#B09500;fontStyle=1;fontSize=14;" parent="1" source="wPt5KKNDqoDLbK822SAh-2" target="wPt5KKNDqoDLbK822SAh-3" edge="1">
          <mxGeometry relative="1" as="geometry">
            <Array as="points">
              <mxPoint x="543" y="462" />
            </Array>
          </mxGeometry>
        </mxCell>
        <mxCell id="wPt5KKNDqoDLbK822SAh-25" value="Yes" style="curved=1;startArrow=none;endArrow=block;exitX=0.94;exitY=1;entryX=0.5;entryY=0;rounded=0;fillColor=#e3c800;strokeColor=#B09500;fontStyle=1;fontSize=14;" parent="1" source="wPt5KKNDqoDLbK822SAh-2" target="wPt5KKNDqoDLbK822SAh-4" edge="1">
          <mxGeometry relative="1" as="geometry">
            <Array as="points">
              <mxPoint x="853" y="462" />
            </Array>
          </mxGeometry>
        </mxCell>
        <mxCell id="wPt5KKNDqoDLbK822SAh-26" value="" style="curved=1;startArrow=none;endArrow=block;exitX=0.5;exitY=1;entryX=0.5;entryY=0;rounded=0;fillColor=#e3c800;strokeColor=#B09500;fontStyle=1;fontSize=14;" parent="1" source="wPt5KKNDqoDLbK822SAh-4" target="wPt5KKNDqoDLbK822SAh-5" edge="1">
          <mxGeometry relative="1" as="geometry">
            <Array as="points" />
          </mxGeometry>
        </mxCell>
        <mxCell id="wPt5KKNDqoDLbK822SAh-27" value="" style="curved=1;startArrow=none;endArrow=block;exitX=0.5;exitY=1;entryX=0.5;entryY=0;rounded=0;fillColor=#e3c800;strokeColor=#B09500;fontStyle=1;fontSize=14;" parent="1" source="wPt5KKNDqoDLbK822SAh-5" target="wPt5KKNDqoDLbK822SAh-6" edge="1">
          <mxGeometry relative="1" as="geometry">
            <Array as="points" />
          </mxGeometry>
        </mxCell>
        <mxCell id="wPt5KKNDqoDLbK822SAh-28" value="" style="curved=1;startArrow=none;endArrow=block;exitX=0.5;exitY=1;entryX=0.5;entryY=0;rounded=0;fillColor=#e3c800;strokeColor=#B09500;fontStyle=1;fontSize=14;" parent="1" source="wPt5KKNDqoDLbK822SAh-6" target="wPt5KKNDqoDLbK822SAh-7" edge="1">
          <mxGeometry relative="1" as="geometry">
            <Array as="points" />
          </mxGeometry>
        </mxCell>
        <mxCell id="wPt5KKNDqoDLbK822SAh-29" value="" style="curved=1;startArrow=none;endArrow=block;exitX=0.5;exitY=1;entryX=0.5;entryY=0;rounded=0;fillColor=#e3c800;strokeColor=#B09500;fontStyle=1;fontSize=14;" parent="1" source="wPt5KKNDqoDLbK822SAh-7" target="wPt5KKNDqoDLbK822SAh-8" edge="1">
          <mxGeometry relative="1" as="geometry">
            <Array as="points" />
          </mxGeometry>
        </mxCell>
        <mxCell id="wPt5KKNDqoDLbK822SAh-30" value="" style="curved=1;startArrow=none;endArrow=block;exitX=0;exitY=0.8;entryX=0.5;entryY=0;rounded=0;fillColor=#e3c800;strokeColor=#B09500;fontStyle=1;fontSize=14;" parent="1" source="wPt5KKNDqoDLbK822SAh-8" target="wPt5KKNDqoDLbK822SAh-9" edge="1">
          <mxGeometry relative="1" as="geometry">
            <Array as="points">
              <mxPoint x="615" y="1273" />
            </Array>
          </mxGeometry>
        </mxCell>
        <mxCell id="wPt5KKNDqoDLbK822SAh-31" value="" style="curved=1;startArrow=none;endArrow=block;exitX=0.5;exitY=1;entryX=0.5;entryY=0;rounded=0;fillColor=#e3c800;strokeColor=#B09500;fontStyle=1;fontSize=14;" parent="1" source="wPt5KKNDqoDLbK822SAh-9" target="wPt5KKNDqoDLbK822SAh-10" edge="1">
          <mxGeometry relative="1" as="geometry">
            <Array as="points" />
          </mxGeometry>
        </mxCell>
        <mxCell id="wPt5KKNDqoDLbK822SAh-32" value="Approve" style="curved=1;startArrow=none;endArrow=block;exitX=0;exitY=0.7;entryX=0.5;entryY=0;rounded=0;fillColor=#e3c800;strokeColor=#B09500;fontStyle=1;fontSize=14;" parent="1" source="wPt5KKNDqoDLbK822SAh-10" target="wPt5KKNDqoDLbK822SAh-11" edge="1">
          <mxGeometry relative="1" as="geometry">
            <Array as="points">
              <mxPoint x="305" y="1644" />
            </Array>
          </mxGeometry>
        </mxCell>
        <mxCell id="wPt5KKNDqoDLbK822SAh-33" value="Reject" style="curved=1;startArrow=none;endArrow=block;exitX=1;exitY=0.91;entryX=0.5;entryY=-0.01;rounded=0;fillColor=#e3c800;strokeColor=#B09500;fontStyle=1;fontSize=14;" parent="1" source="wPt5KKNDqoDLbK822SAh-10" target="wPt5KKNDqoDLbK822SAh-12" edge="1">
          <mxGeometry relative="1" as="geometry">
            <Array as="points">
              <mxPoint x="770" y="1644" />
            </Array>
          </mxGeometry>
        </mxCell>
        <mxCell id="wPt5KKNDqoDLbK822SAh-34" value="No action within timeout" style="curved=1;startArrow=none;endArrow=block;exitX=1;exitY=0.64;entryX=0.5;entryY=-0.01;rounded=0;fillColor=#e3c800;strokeColor=#B09500;fontStyle=1;fontSize=14;" parent="1" source="wPt5KKNDqoDLbK822SAh-10" target="wPt5KKNDqoDLbK822SAh-13" edge="1">
          <mxGeometry relative="1" as="geometry">
            <Array as="points">
              <mxPoint x="1080" y="1644" />
            </Array>
          </mxGeometry>
        </mxCell>
        <mxCell id="wPt5KKNDqoDLbK822SAh-35" value="No" style="curved=1;startArrow=none;endArrow=block;exitX=0.06;exitY=1;entryX=0.5;entryY=0;rounded=0;fillColor=#e3c800;strokeColor=#B09500;fontStyle=1;fontSize=14;" parent="1" source="wPt5KKNDqoDLbK822SAh-11" target="wPt5KKNDqoDLbK822SAh-14" edge="1">
          <mxGeometry relative="1" as="geometry">
            <Array as="points">
              <mxPoint x="150" y="1995" />
            </Array>
          </mxGeometry>
        </mxCell>
        <mxCell id="wPt5KKNDqoDLbK822SAh-36" value="Yes" style="curved=1;startArrow=none;endArrow=block;exitX=0.94;exitY=1;entryX=0.5;entryY=0;rounded=0;fillColor=#e3c800;strokeColor=#B09500;fontStyle=1;fontSize=14;" parent="1" source="wPt5KKNDqoDLbK822SAh-11" target="wPt5KKNDqoDLbK822SAh-15" edge="1">
          <mxGeometry relative="1" as="geometry">
            <Array as="points">
              <mxPoint x="460" y="1995" />
            </Array>
          </mxGeometry>
        </mxCell>
        <mxCell id="wPt5KKNDqoDLbK822SAh-37" value="" style="curved=1;startArrow=none;endArrow=block;exitX=0.5;exitY=1;entryX=0;entryY=0.03;rounded=0;fillColor=#e3c800;strokeColor=#B09500;fontStyle=1;fontSize=14;" parent="1" source="wPt5KKNDqoDLbK822SAh-14" target="wPt5KKNDqoDLbK822SAh-16" edge="1">
          <mxGeometry relative="1" as="geometry">
            <Array as="points">
              <mxPoint x="150" y="2134" />
            </Array>
          </mxGeometry>
        </mxCell>
        <mxCell id="wPt5KKNDqoDLbK822SAh-38" value="Yes" style="curved=1;startArrow=none;endArrow=block;exitX=1;exitY=0.42;entryX=1;entryY=0.68;rounded=0;fillColor=#e3c800;strokeColor=#B09500;fontStyle=1;fontSize=14;" parent="1" source="wPt5KKNDqoDLbK822SAh-16" target="wPt5KKNDqoDLbK822SAh-8" edge="1">
          <mxGeometry relative="1" as="geometry">
            <Array as="points">
              <mxPoint x="1290" y="2270" />
              <mxPoint x="1510" y="2140" />
              <mxPoint x="1530" y="1710" />
              <mxPoint x="1245" y="1273" />
            </Array>
          </mxGeometry>
        </mxCell>
        <mxCell id="wPt5KKNDqoDLbK822SAh-39" value="No" style="curved=1;startArrow=none;endArrow=block;exitX=0.5;exitY=1;entryX=0.5;entryY=0;rounded=0;fillColor=#e3c800;strokeColor=#B09500;fontStyle=1;fontSize=14;" parent="1" source="wPt5KKNDqoDLbK822SAh-16" target="wPt5KKNDqoDLbK822SAh-17" edge="1">
          <mxGeometry relative="1" as="geometry">
            <Array as="points" />
          </mxGeometry>
        </mxCell>
        <mxCell id="wPt5KKNDqoDLbK822SAh-40" value="" style="curved=1;startArrow=none;endArrow=block;exitX=0.5;exitY=1;entryX=0.34;entryY=0;rounded=0;fillColor=#e3c800;strokeColor=#B09500;fontStyle=1;fontSize=14;" parent="1" source="wPt5KKNDqoDLbK822SAh-15" target="wPt5KKNDqoDLbK822SAh-18" edge="1">
          <mxGeometry relative="1" as="geometry">
            <Array as="points">
              <mxPoint x="460" y="2134" />
            </Array>
          </mxGeometry>
        </mxCell>
        <mxCell id="wPt5KKNDqoDLbK822SAh-41" value="" style="curved=1;startArrow=none;endArrow=block;exitX=0.5;exitY=1;entryX=0.5;entryY=0;rounded=0;fillColor=#e3c800;strokeColor=#B09500;fontStyle=1;fontSize=14;" parent="1" source="wPt5KKNDqoDLbK822SAh-18" target="wPt5KKNDqoDLbK822SAh-19" edge="1">
          <mxGeometry relative="1" as="geometry">
            <Array as="points" />
          </mxGeometry>
        </mxCell>
        <mxCell id="wPt5KKNDqoDLbK822SAh-42" value="" style="curved=1;startArrow=none;endArrow=block;exitX=0.5;exitY=0.99;entryX=0.5;entryY=0;rounded=0;fillColor=#e3c800;strokeColor=#B09500;fontStyle=1;fontSize=14;" parent="1" source="wPt5KKNDqoDLbK822SAh-12" target="wPt5KKNDqoDLbK822SAh-20" edge="1">
          <mxGeometry relative="1" as="geometry">
            <Array as="points" />
          </mxGeometry>
        </mxCell>
        <mxCell id="wPt5KKNDqoDLbK822SAh-43" value="" style="curved=1;startArrow=none;endArrow=block;exitX=0.5;exitY=0.99;entryX=0.5;entryY=0;rounded=0;fillColor=#e3c800;strokeColor=#B09500;fontStyle=1;fontSize=14;" parent="1" source="wPt5KKNDqoDLbK822SAh-13" target="wPt5KKNDqoDLbK822SAh-21" edge="1">
          <mxGeometry relative="1" as="geometry">
            <Array as="points" />
          </mxGeometry>
        </mxCell>
        <mxCell id="wPt5KKNDqoDLbK822SAh-44" value="" style="curved=1;startArrow=none;endArrow=block;exitX=0.5;exitY=1;entryX=0.5;entryY=0;rounded=0;fillColor=#e3c800;strokeColor=#B09500;fontStyle=1;fontSize=14;" parent="1" source="wPt5KKNDqoDLbK822SAh-17" target="wPt5KKNDqoDLbK822SAh-22" edge="1">
          <mxGeometry relative="1" as="geometry">
            <Array as="points" />
          </mxGeometry>
        </mxCell>
      </root>
    </mxGraphModel>
  </diagram>
</mxfile>
